<?xml version="1.0" encoding="UTF-8"?>
<svg id="Camada_2" data-name="Camada 2" xmlns="http://www.w3.org/2000/svg" viewBox="0 0 1535.17 1730.18">
  <defs>
    <style>
      .cls-1 {
        fill: #ffed00;
      }
    </style>
  </defs>
  <g id="Camada_1-2" data-name="Camada 1">
    <g>
      <path class="cls-1" d="m232.03,1316.6c0,15.66-3.04,30.85-9.11,45.15-5.83,13.83-14.22,26.24-24.87,36.89-10.66,10.66-23.07,19.02-36.87,24.88-14.3,6.03-29.49,9.11-45.15,9.11s-30.89-3.07-45.18-9.11c-13.83-5.86-26.21-14.22-36.87-24.88-10.66-10.65-19.04-23.07-24.87-36.89-6.06-14.29-9.11-29.49-9.11-45.15v-.13h26.75v.13c0,49.2,40.05,89.24,89.28,89.24s89.22-40.04,89.22-89.24v-159.35h26.78v159.35Z"/>
      <path class="cls-1" d="m521.72,1241.33c7.2,17,10.84,35.01,10.84,53.62s-3.64,36.61-10.84,53.59c-6.94,16.38-16.88,31.11-29.52,43.76-12.64,12.64-27.37,22.58-43.76,29.52-16.98,7.17-35.01,10.81-53.59,10.81s-36.64-3.64-53.62-10.81c-16.38-6.94-31.11-16.88-43.76-29.52-12.64-12.64-22.58-27.37-29.52-43.76-7.17-16.98-10.81-35.01-10.81-53.59s3.64-36.62,10.81-53.62c6.94-16.38,16.88-31.11,29.52-43.76,12.64-12.64,27.37-22.58,43.76-29.52,16.98-7.17,35.02-10.81,53.62-10.81s36.61,3.64,53.59,10.81c16.38,6.94,31.11,16.87,43.76,29.51,12.64,12.64,22.58,27.37,29.52,43.76Zm-15.94,53.62c0-61.17-49.77-110.94-110.92-110.94s-110.92,49.77-110.92,110.94,49.74,110.92,110.92,110.92,110.92-49.77,110.92-110.92Z"/>
      <path class="cls-1" d="m722.15,1157.25h28.56l-.05.18-19.69,53.25-3.92,10.55-5.88,15.94-72.32,195.44-28.33.03-.03-.07-78.17-211.34-3.93-10.55-19.74-53.43h28.54l.05.07,87.44,236.45,87.46-236.52Z"/>
      <path class="cls-1" d="m771.68,1454.76v-297.51h26.79v297.51h-26.79Z"/>
      <path class="cls-1" d="m856.65,1432.62h-28.54l.05-.17,19.68-53.25,5.91-15.95,3.89-10.55,72.32-195.44h28.33l.11.2,78.1,211.19,3.92,10.55,19.74,53.43h-28.53l-.06-.08-19.66-53.17h-135.56l-19.71,53.25Zm29.59-80h115.8l-57.9-156.51-57.9,156.51Z"/>
      <path class="cls-1" d="m1233.19,1421.81c-16.98,7.17-35.01,10.81-53.59,10.81l-67.7.02h-26.63v-275.4h94.33c18.58,0,36.61,3.64,53.59,10.81,16.41,6.94,31.12,16.87,43.79,29.51,12.64,12.64,22.58,27.37,29.49,43.76,7.2,17.01,10.84,35.02,10.84,53.62s-3.64,36.61-10.84,53.59c-6.91,16.39-16.85,31.12-29.49,43.76-12.67,12.64-27.37,22.58-43.79,29.51Zm-121.16-15.94h67.58c61.15,0,110.92-49.77,110.92-110.92s-49.77-110.94-110.92-110.94h-67.58v221.86Z"/>
      <path class="cls-1" d="m1331.66,1432.62h-28.54l.06-.17,19.68-53.25,5.91-15.95,3.89-10.55,72.32-195.44h28.33l.11.2,78.1,211.19,3.92,10.55,19.74,53.43h-28.53l-.06-.08-19.66-53.17h-135.56l-19.71,53.25Zm29.59-80h115.8l-57.9-156.51-57.9,156.51Z"/>
      <path class="cls-1" d="m419.73,1720.09c-16.49,6.68-33.93,10.06-51.81,10.06h-.02c-17.88,0-35.3-3.41-51.81-10.09-17.08-6.91-32.41-17.11-45.54-30.24-13.14-13.14-23.32-28.49-30.24-45.57-6.71-16.49-10.08-33.93-10.08-51.81s3.38-35.3,10.06-51.81c6.94-17.08,17.11-32.41,30.24-45.54,13.16-13.13,28.48-23.32,45.56-30.24,16.49-6.71,33.93-10.09,51.81-10.09s35.32,3.38,51.81,10.09c17.08,6.91,32.43,17.11,45.56,30.24l.11.11-.11.07-18.83,18.84-.08-.11c-10.47-10.45-22.68-18.58-35.97-24.07-13.29-5.5-27.66-8.38-42.46-8.38-29.65,0-57.51,11.54-78.46,32.48-20.95,20.95-32.49,48.82-32.49,78.44s11.54,57.49,32.49,78.44c20.95,20.94,48.81,32.48,78.44,32.48s57.48-11.54,78.43-32.48l.11-.11.07.11,18.86,18.83-.11.11c-13.13,13.13-28.46,23.3-45.54,30.24Z"/>
      <path class="cls-1" d="m735.43,1538.86c7.2,17,10.84,35.01,10.84,53.62s-3.64,36.61-10.84,53.59c-6.94,16.38-16.88,31.11-29.52,43.76-12.64,12.64-27.37,22.58-43.76,29.52-16.98,7.17-35.01,10.81-53.59,10.81s-36.64-3.64-53.62-10.81c-16.38-6.94-31.11-16.88-43.76-29.52-12.64-12.64-22.58-27.37-29.52-43.76-7.17-16.98-10.81-35.01-10.81-53.59s3.64-36.62,10.81-53.62c6.94-16.38,16.88-31.11,29.52-43.76,12.64-12.64,27.37-22.58,43.76-29.52,16.98-7.17,35.02-10.81,53.62-10.81s36.61,3.64,53.59,10.81c16.38,6.94,31.11,16.87,43.76,29.51,12.64,12.64,22.58,27.37,29.52,43.76Zm-15.94,53.62c0-61.17-49.77-110.94-110.92-110.94s-110.92,49.77-110.92,110.94,49.74,110.92,110.92,110.92,110.92-49.77,110.92-110.92Z"/>
      <path class="cls-1" d="m942.23,1644.85l61.69,85.3h-33.06l-.02-.05-56.74-78.44c-2.89.28-5.8.41-8.95.41h-106.68v78.07l-.13.02h-26.65v-275.4h133.46c26.34,0,51.11,10.27,69.74,28.89,18.63,18.63,28.89,43.4,28.89,69.74,0,20.05-5.98,39.35-17.29,55.81-11.02,16.05-26.32,28.35-44.27,35.63Zm-16.44-22.58c30.16-9,51.21-37.33,51.21-68.86,0-39.63-32.23-71.85-71.85-71.85h-106.69v143.74h106.69c1.03,0,2.03-.02,3.07-.08,2.1-.07,4.21-.26,6.24-.54,3.87-.49,7.67-1.29,11.33-2.4Z"/>
      <path class="cls-1" d="m1293.8,1538.86c7.2,17,10.84,35.01,10.84,53.62s-3.64,36.61-10.84,53.59c-6.94,16.38-16.88,31.11-29.52,43.76-12.64,12.64-27.37,22.58-43.76,29.52-16.98,7.17-35.01,10.81-53.59,10.81s-36.64-3.64-53.62-10.81c-16.38-6.94-31.11-16.88-43.76-29.52-12.64-12.64-22.58-27.37-29.52-43.76-7.17-16.98-10.81-35.01-10.81-53.59s3.64-36.62,10.81-53.62c6.94-16.38,16.88-31.11,29.52-43.76s27.37-22.58,43.76-29.52c16.98-7.17,35.02-10.81,53.62-10.81s36.61,3.64,53.59,10.81c16.38,6.94,31.11,16.87,43.76,29.51,12.64,12.64,22.58,27.37,29.52,43.76Zm-15.94,53.62c0-61.17-49.77-110.94-110.92-110.94s-110.92,49.77-110.92,110.94,49.74,110.92,110.92,110.92,110.92-49.77,110.92-110.92Z"/>
    </g>
    <rect class="cls-1" x="141.83" y="1134.64" width="26.78" height="71.99" transform="translate(-1015.42 1325.86) rotate(-90)"/>
    <g>
      <path class="cls-1" d="m913.52,576.18c0,56.59-11,111.5-32.91,163.15-21.07,49.97-51.37,94.82-89.87,133.32-38.5,38.5-83.35,68.71-133.23,89.87-51.65,21.81-106.56,32.91-163.15,32.91s-111.6-11.09-163.25-32.91c-49.97-21.16-94.72-51.37-133.23-89.87-38.5-38.5-68.8-83.35-89.87-133.32-21.91-51.65-32.91-106.56-32.91-163.15v-.47h96.68v.47c0,177.79,144.69,322.48,322.58,322.48s322.39-144.69,322.39-322.48V.39h96.77v575.79Z"/>
      <path class="cls-1" d="m1330.13,958.65c-59.57,24.15-122.6,36.36-187.2,36.36h-.09c-64.61,0-127.54-12.31-187.2-36.45-61.72-24.98-117.09-61.81-164.55-109.26-1.11-1.11,88.05-775.62,122.4-793.44,13.69-7.1,27.74-13.58,42.14-19.4C1015.21,12.21,1078.23,0,1142.84,0s127.63,12.21,187.2,36.45c61.71,24.98,117.18,61.81,164.64,109.26l.37.37-.37.28-68.05,68.05-.28-.37c-37.85-37.75-81.95-67.12-129.96-86.97-48.01-19.86-99.94-30.3-153.45-30.3-83.27,0-162.65,25.18-229.43,71.95-19.13,13.4-55.64,610.67-54.07,612.24,75.7,75.7,176.39,117.37,283.41,117.37s207.71-41.67,283.41-117.37l.37-.37.28.37,68.15,68.05-.37.37c-47.45,47.45-102.83,84.18-164.54,109.26Z"/>
      <rect class="cls-1" x="558.71" y="-118.51" width="96.79" height="333.8" transform="translate(558.71 655.5) rotate(-90)"/>
    </g>
  </g>
</svg>