<?xml version="1.0" encoding="UTF-8"?>
<svg id="Camada_2" data-name="Camada 2" xmlns="http://www.w3.org/2000/svg" viewBox="0 0 1976.2 900.63">
  <defs>
    <style>
      .cls-1 {
        fill: #f39200;
        font-family: Camelleon, Camelleon;
        font-size: 733.2px;
      }

      .cls-2 {
        fill: none;
        stroke: #f39200;
        stroke-miterlimit: 10;
        stroke-width: 14px;
      }

      .cls-3 {
        font-family: Nura-Medium, Nura;
        font-size: 79.99px;
        font-weight: 500;
      }

      .cls-3, .cls-4 {
        fill: #fff;
      }

      .cls-5 {
        letter-spacing: -.05em;
      }

      .cls-4 {
        stroke-width: 0px;
      }

      .cls-6 {
        letter-spacing: -.02em;
      }
    </style>
  </defs>
  <g id="Camada_1-2" data-name="Camada 1">
    <text/>
    <g>
      <path class="cls-4" d="m82.72,6.38h182.96c70.63,0,112.81,48.07,112.81,129,0,55.92-22.56,102.51-70.63,118.21l70.63,96.14h-79.46l-61.31-86.33h-77.01v86.33h-77.99V6.38Zm156.96,200.62c38.26,0,60.82-26.49,60.82-71.61s-22.56-72.59-60.82-72.59h-78.97v144.21h78.97Z"/>
      <path class="cls-4" d="m849.97,6.38v56.41h-354.76v86.82h183.94v56.41h-183.94v87.31h466.62v56.41H417.22V6.38h432.75Z"/>
      <path class="cls-4" d="m1180.65,65.73h-113.8v284h-77.99V65.73h-114.29V6.38h306.08v59.35Z"/>
      <path class="cls-4" d="m1297.86,6.38v343.35h-77.99V6.38h77.99Z"/>
      <path class="cls-4" d="m1336.6,6.38h182.96c70.63,0,112.81,48.07,112.81,129,0,55.92-22.56,102.51-70.63,118.21l70.63,96.14h-79.46l-61.31-86.33h-77.01v86.33h-77.99V6.38Zm156.96,200.62c38.26,0,60.82-26.49,60.82-71.61s-22.56-72.59-60.82-72.59h-78.97v144.21h78.97Z"/>
      <path class="cls-4" d="m1671.1,209.44v-61.31c0-93.19,56.9-148.13,152.55-148.13s152.54,54.94,152.54,148.13v61.31c0,93.2-56.41,148.13-152.54,148.13s-152.55-54.94-152.55-148.13Zm152.55,81.92c47.09,0,75.04-30.41,75.04-81.92v-61.31c0-51.5-27.96-81.91-75.04-81.91s-74.56,30.41-74.56,81.91v61.31c0,51.5,27.96,81.92,74.56,81.92Z"/>
    </g>
    <text class="cls-3" transform="translate(695.14 206.43) scale(1.19 1)"><tspan x="0" y="0">2</tspan><tspan class="cls-6" x="54.79" y="0">0</tspan><tspan class="cls-5" x="107.67" y="0">2</tspan><tspan x="158.46" y="0">4</tspan></text>
    <text class="cls-1" transform="translate(364.34 754.13) rotate(-.98) scale(.64 1)"><tspan x="0" y="0">reconstrucao </tspan></text>
    <path class="cls-2" d="m1508.4,410.48c5.71-8.72,11.52-11.95,16.35-13.01,9.04-1.98,14.84,3.62,22.58.8,6.17-2.25,9.78-8.47,11.98-14.31"/>
    <path class="cls-2" d="m1453.19,681.97c-2.66,5.62-4.85,12.97-2.87,20.56,1.69,6.46,12.26,8.73,12.74,14.34.37,4.43-8.2,10.64-16.56,18.64"/>
  </g>
</svg>